<?xml version="1.0" encoding="utf-8"?>
<!-- Generator: Adobe Illustrator 16.0.0, SVG Export Plug-In . SVG Version: 6.00 Build 0)  -->
<!DOCTYPE svg PUBLIC "-//W3C//DTD SVG 1.1//EN" "http://www.w3.org/Graphics/SVG/1.1/DTD/svg11.dtd">
<svg version="1.1" id="Layer_1" xmlns="http://www.w3.org/2000/svg" xmlns:xlink="http://www.w3.org/1999/xlink" x="0px" y="0px"
	 width="242.188px" height="59px" viewBox="0 0 242.188 59" enable-background="new 0 0 242.188 59" xml:space="preserve">
<path id="kstp.ir" fill="#FFFFFF" d="M234.687,19c-0.812,1.125-1.312,2.906-1.5,6c-0.187,3.094-5.5,3.5-5.5,3.5
	c-1.348-0.129-2.601,0.706-3,2c-0.625,1.406,0.266,3.939-1.5,6.5c-0.969,1.406-2.625,2.062-4.5,2.5c-1.722,0.4-1.5,0-1.5,0l-2.5-2.5
	c0,0,4.971-0.062,6-2c1.031-1.938,0.933-6,1.5-7c0.936-1.346,2.381-2.25,4-2.5c1.134-0.217,2.906,0,4-1.5
	c1.032-1.415,0.562-2.437,1-4c0.4-1.441,0.875-3.437,1.5-4s3.5-1.375,5-2c1.221-0.569,2.392-1.238,3.5-2v4
	C241.187,16,236.749,16.719,234.687,19z M226.687,11.5c-1,0.969-1.312,2.906-1.5,6c-0.187,3.094-5.5,3.5-5.5,3.5
	c-1.348-0.129-2.601,0.706-3,2c-0.625,1.406,0.266,3.94-1.5,6.5c-0.969,1.406-2.625,2.062-4.5,2.5c-1.722,0.4-1.5,0-1.5,0l-2.5-2.5
	c0,0,4.971-0.062,6-2c1.031-1.938,0.933-6,1.5-7c0.936-1.346,2.381-2.25,4-2.5c1.134-0.217,2.906,0,4-1.5
	c1.032-1.415,0.562-2.437,1-4c0.4-1.441,0.346-3.375,2-4.5c1.656-1.125,4.75-0.594,6-2s1.5-6,1.5-6l3,2.5c0,0-0.404,4.063-1.5,5.5
	C233.093,9.437,228.968,9.563,226.687,11.5z M222.687,8c-0.904,1-1.312,2.906-1.5,6c-0.187,3.094-5.5,3.5-5.5,3.5
	c-1.348-0.129-2.601,0.706-3,2c-0.625,1.406,0.266,3.94-1.5,6.5c-0.969,1.406-2.625,2.063-4.5,2.5c-1.722,0.4-1.5,0-1.5,0l-2.5-2.5
	c0,0,4.971-0.062,6-2c1.031-1.938,0.933-6,1.5-7c0.936-1.346,2.381-2.25,4-2.5c1.134-0.217,2.906,0,4-1.5
	c1.032-1.415,0.562-2.437,1-4c0.4-1.441,0.562-3.375,2.5-4.5c1.917-0.896,3.931-1.567,6-2l2.5,2.5
	C227.407,5.066,224.745,6.132,222.687,8z M211.687,14c-1.348-0.129-2.601,0.706-3,2c-0.625,1.406,0.266,3.94-1.5,6.5
	c-0.969,1.406-2.625,2.063-4.5,2.5c-1.722,0.4-1.5,0-1.5,0l-2.5-2.5c0,0,4.971-0.062,6-2c1.031-1.938,0.933-6,1.5-7
	c0.936-1.346,2.381-2.25,4-2.5c1.134-0.217,2.906,0,4-1.5c1.032-1.415,0.562-2.437,1-4c0.4-1.441,1-4,1-4l2.5,3
	c-0.814,1.907-1.321,3.933-1.5,6C216.999,13.594,211.687,14,211.687,14z M199.437,12c-2.347,0-4.25-1.903-4.25-4.25
	s1.903-4.25,4.25-4.25c2.349,0,4.25,1.903,4.25,4.25S201.784,12,199.437,12L199.437,12z M189.937,20.5
	c-2.347,0-4.25-1.903-4.25-4.25s1.903-4.25,4.25-4.25c2.349,0,4.25,1.903,4.25,4.25S192.284,20.5,189.937,20.5z M189.687,28.75
	c0,2.348-1.901,4.25-4.25,4.25c-2.347,0-4.25-1.902-4.25-4.25c0-2.347,1.903-4.25,4.25-4.25
	C187.784,24.5,189.687,26.403,189.687,28.75z M188.437,37c2.349,0,4.25,1.902,4.25,4.25s-1.901,4.25-4.25,4.25
	c-2.347,0-4.25-1.902-4.25-4.25l0,0C184.187,38.902,186.09,37,188.437,37z M196.937,46.5c2.349,0,4.25,1.902,4.25,4.25
	s-1.901,4.25-4.25,4.25c-2.347,0-4.25-1.902-4.25-4.25S194.59,46.5,196.937,46.5z M209.437,50.5c2.349,0,4.25,1.902,4.25,4.25
	s-1.901,4.25-4.25,4.25c-2.347,0-4.25-1.902-4.25-4.25S207.09,50.5,209.437,50.5L209.437,50.5z M216.687,31.5
	c1.031-1.937,0.933-6,1.5-7c0.936-1.346,2.381-2.25,4-2.5c1.134-0.217,2.906,0,4-1.5c1.032-1.415,0.562-2.437,1-4c0.4-1.441,1-4,1-4
	l2.5,3c-0.814,1.907-1.321,3.933-1.5,6c-0.188,3.094-5.5,3.5-5.5,3.5c-1.348-0.129-2.601,0.706-3,2
	c-0.625,1.406,0.266,3.939-1.5,6.5c-0.969,1.406-2.625,2.062-4.5,2.5c-1.722,0.4-1.5,0-1.5,0l-2.5-2.5
	C210.687,33.5,215.656,33.438,216.687,31.5z M221.937,47.5c2.349,0,4.25,1.902,4.25,4.25s-1.901,4.25-4.25,4.25
	c-2.347,0-4.25-1.902-4.25-4.25S219.59,47.5,221.937,47.5z M231.437,38.5c2.349,0,4.25,1.902,4.25,4.25s-1.901,4.25-4.25,4.25
	c-2.347,0-4.25-1.902-4.25-4.25S229.09,38.5,231.437,38.5z M165.255,43.764h-0.745c-1.209,0.146-2.39-0.432-3.02-1.473
	c-0.427-1.057-0.63-2.189-0.601-3.327l-0.218-7.563l2.182-0.873v8.709c0,1.32,0.527,1.981,1.582,1.981h1.868
	c0.765,0,1.146-0.176,1.146-0.526c-0.063-0.377-0.241-0.728-0.51-1l-0.727-0.944l1.418-2.019c0.95,0.916,1.471,2.188,1.436,3.509
	c0.043,0.857-0.235,1.7-0.781,2.364C167.499,43.42,166.388,43.846,165.255,43.764z M153.909,47.891l-1.705-1.345
	c1.544-0.705,2.977-1.63,4.254-2.745c0.749-0.516,1.273-1.295,1.474-2.182c-0.029-0.411-0.183-0.805-0.437-1.127
	c-0.193-0.255-0.484-0.643-0.873-1.164l1.633-1.965c0.455,0.537,0.84,1.13,1.146,1.765c0.297,0.707,0.438,1.47,0.419,2.235
	c-0.1,1.601-0.855,3.088-2.092,4.108C156.617,46.511,155.323,47.33,153.909,47.891z M151.947,33.309
	c-1.497,0.345-2.964,0.812-4.383,1.4c-0.254,0.084-0.283,0.193-0.09,0.326l2.271,1.765c0.981,0.729,1.625,1.824,1.782,3.036
	c0,3.018-2.83,4.533-8.491,4.546c-4.46,0-6.69-1.297-6.69-3.892c0.047-1.036,0.341-2.046,0.858-2.944l1.709,0.545
	c-0.261,0.472-0.428,0.991-0.49,1.526c-0.038,0.591,0.238,1.158,0.727,1.49c1.255,0.588,2.641,0.832,4.019,0.709h0.455
	c1.119,0.005,2.235-0.068,3.346-0.217c1.819-0.256,2.734-0.68,2.746-1.273c0.012-0.545-0.643-1.333-1.965-2.363
	c-0.915-0.619-1.726-1.38-2.399-2.254c0.028-0.433,0.108-0.859,0.237-1.273c0.051-0.409,0.243-0.789,0.545-1.072
	c2.95-1.394,6.021-2.52,9.173-3.362l-0.327,2.582C153.962,32.801,152.951,33.043,151.947,33.309L151.947,33.309z M130.914,40.945
	c1.086-0.078,2.162-0.248,3.219-0.51l-0.255,2.219c-2.472,0.624-4.999,0.994-7.546,1.108h-1.509
	c-0.493-0.011-0.971-0.176-1.364-0.473c-0.322-0.219-0.58-0.521-0.744-0.873c-0.359,0.84-1.197,1.374-2.11,1.346h-1.255
	c-0.652,0.046-1.307-0.104-1.872-0.436c0.162,0.385,0.242,0.8,0.236,1.218c0.033,0.521-0.094,1.042-0.364,1.491
	c-0.28,0.461-0.787,0.737-1.327,0.727c-1.453,0.013-2.345-0.843-2.673-2.563c-0.094-0.473-0.142-0.953-0.146-1.437
	c-0.443-0.05-0.891,0.074-1.245,0.347c-0.265,0.36-0.385,0.81-0.337,1.256v8.127h-1.764l-0.326-8.328
	c-0.071-1.036,0.287-2.057,0.99-2.818c0.744-0.791,1.799-1.216,2.883-1.164l0.345-1.164c0.824,0.543,1.681,1.034,2.563,1.474
	c0.896,0.439,1.875,0.688,2.873,0.728h0.892c0.52,0.079,1.05-0.052,1.473-0.363c0.187-0.455,0.249-0.949,0.182-1.437l-0.254-8.019
	l2.2-0.873v8.654c-0.021,0.495,0.111,0.984,0.381,1.4c0.272,0.414,0.741,0.655,1.237,0.636h2.145
	c-0.071-0.146-0.188-0.382-0.345-0.709c-0.124-0.413-0.186-0.842-0.183-1.272c0.03-0.754,0.337-1.469,0.862-2.01
	c0.562-0.703,1.421-1.104,2.319-1.082c0.562,0.011,1.114,0.145,1.618,0.392c0.487,0.207,0.913,0.536,1.235,0.955l-0.653,1.346
	c-0.629-0.332-1.326-0.514-2.037-0.526c-0.41,0-0.812,0.095-1.183,0.272c-0.318,0.125-0.537,0.422-0.562,0.764
	c0.061,0.473,0.344,0.886,0.763,1.109C129.766,40.771,130.333,40.939,130.914,40.945z M114.733,42.236
	c-0.048,0.627,0.056,1.257,0.301,1.836c0.127,0.389,0.476,0.66,0.882,0.69c0.304,0,0.455-0.2,0.455-0.6
	C116.369,43.461,115.824,42.818,114.733,42.236z M101.884,48.473L100.356,47c1.274-0.491,2.45-1.205,3.474-2.109
	c0.77-0.533,1.358-1.287,1.69-2.164c-0.449,0.205-0.94,0.306-1.437,0.291c-1.091,0.17-2.113-0.576-2.283-1.668
	c-0.029-0.188-0.032-0.379-0.008-0.567c0.014-0.757,0.207-1.497,0.562-2.164c0.281-0.806,1.007-1.373,1.855-1.453
	c1.062-0.031,2.034,0.588,2.454,1.563c0.462,0.949,0.687,1.998,0.654,3.056c-0.072,1.5-0.68,2.925-1.709,4.018
	C104.648,47.027,103.355,47.954,101.884,48.473z M104.992,39.654c-0.193-0.208-0.462-0.332-0.746-0.346
	c-0.24,0.006-0.468,0.11-0.627,0.291c-0.185,0.184-0.285,0.434-0.281,0.691c0,0.436,0.363,0.653,1.091,0.653
	c0.358,0.018,0.716-0.058,1.037-0.218C105.427,40.328,105.261,39.953,104.992,39.654z M94.251,43.764h-1.709l0,0
	c-0.834,0.07-1.624-0.386-1.981-1.143c-0.602,0.795-1.568,1.227-2.562,1.143h-1.056c-1.207,0.145-2.388-0.433-3.018-1.473
	c-0.428-1.057-0.632-2.189-0.601-3.327L83.104,31.4l2.183-0.873v8.709c0,1.32,0.526,1.981,1.582,1.981h1.057
	c1.09,0,1.636-0.376,1.636-1.127v-0.872l1.801-0.582v0.545c0,1.357,0.441,2.037,1.326,2.036h2.837c1.236,0,1.854-0.412,1.855-1.235
	c-0.472,0.359-1.065,0.521-1.654,0.453c-0.978,0.162-1.899-0.498-2.062-1.477c-0.028-0.167-0.031-0.337-0.012-0.506
	c0.02-0.736,0.226-1.455,0.601-2.09c0.304-0.775,1.021-1.312,1.852-1.383c0.896,0,1.631,0.632,2.2,1.893
	c0.438,0.953,0.672,1.986,0.69,3.035C99.008,42.479,97.427,43.764,94.251,43.764z M96.489,37.419
	c-0.148-0.218-0.377-0.368-0.637-0.418c-0.205,0.028-0.386,0.147-0.49,0.327c-0.151,0.113-0.25,0.284-0.272,0.473
	c-0.047,0.389,0.23,0.74,0.619,0.786c0.065,0.008,0.133,0.007,0.198-0.004c0.386,0.073,0.772-0.12,0.944-0.474
	C96.774,37.859,96.653,37.625,96.489,37.419L96.489,37.419z M93.704,32.546l1.42-1.909l1.945,1.31l-1.419,1.892L93.704,32.546z
	 M88.816,35.764l1.437-1.908l1.929,1.31l-1.418,1.873L88.816,35.764z M76.853,48.473L75.324,47c1.273-0.491,2.449-1.205,3.474-2.109
	c0.77-0.533,1.359-1.287,1.69-2.164c-0.45,0.205-0.941,0.306-1.437,0.291c-1.092,0.17-2.114-0.576-2.284-1.668
	c-0.028-0.188-0.031-0.379-0.007-0.567c0.013-0.757,0.206-1.497,0.563-2.164c0.28-0.806,1.006-1.372,1.854-1.453
	c1.062-0.031,2.034,0.588,2.455,1.563c0.461,0.949,0.687,1.998,0.653,3.056c-0.072,1.5-0.679,2.925-1.709,4.018
	C79.616,47.027,78.323,47.954,76.853,48.473z M79.962,39.654c-0.194-0.208-0.462-0.332-0.745-0.346
	c-0.241,0.006-0.469,0.11-0.627,0.291c-0.184,0.184-0.285,0.434-0.282,0.691c0,0.436,0.363,0.653,1.091,0.653
	c0.358,0.018,0.716-0.059,1.036-0.218C80.396,40.328,80.231,39.952,79.962,39.654z M69.398,47.891l-1.709-1.346
	c1.543-0.705,2.977-1.63,4.255-2.745c0.747-0.517,1.273-1.296,1.473-2.183c-0.03-0.41-0.183-0.803-0.437-1.127
	c-0.193-0.254-0.484-0.644-0.873-1.164l1.638-1.963c0.455,0.537,0.84,1.131,1.146,1.765c0.295,0.707,0.438,1.47,0.416,2.235
	c-0.1,1.6-0.855,3.088-2.091,4.108C72.104,46.51,70.81,47.33,69.398,47.891z M65.288,38.727c-0.638,0.006-1.255,0.218-1.765,0.601
	c-0.386,0.207-0.648,0.585-0.709,1.019c-0.002,0.182,0.131,0.336,0.31,0.364c0.327,0.092,0.662,0.152,1,0.183
	c0.206,0,0.51,0.012,0.909,0.035c1.503,0.109,2.255,0.709,2.255,1.801c-0.013,1.575-0.838,3.033-2.185,3.854
	c-1.388,0.958-3.041,1.454-4.727,1.418c-3.687,0-5.527-1.546-5.527-4.637c0.023-1.247,0.382-2.466,1.036-3.526l1.745,0.6
	c-0.454,0.692-0.699,1.5-0.706,2.327c0,1.83,1.248,2.745,3.746,2.746c0.75-0.024,1.495-0.142,2.218-0.346
	c0.95-0.195,1.834-0.634,2.563-1.272c0.109-0.099,0.176-0.235,0.183-0.383c-0.003-0.195-0.164-0.352-0.359-0.349
	c-0.014,0-0.026,0.001-0.041,0.002c-1.043-0.097-1.987-0.183-2.836-0.254c-0.882-0.058-1.552-0.816-1.495-1.698
	c0.001-0.004,0.001-0.007,0.001-0.011c0.024-1.283,0.573-2.502,1.519-3.373c0.862-0.957,2.084-1.513,3.373-1.535
	c0.328-0.01,0.657,0.015,0.981,0.072c0.31,0.125,0.607,0.276,0.892,0.455l-0.564,2.163C66.521,38.783,65.906,38.697,65.288,38.727
	L65.288,38.727z M49.456,41.326c-0.605,0.363-1.533,0.892-2.781,1.582c-1.193,0.582-2.508,0.875-3.835,0.854h-2.2
	c-0.45,0.036-0.894-0.123-1.218-0.436c-0.183,1.389-0.876,2.659-1.945,3.562c-1.038,0.944-2.238,1.689-3.546,2.2l-1.817-1.255
	c1.168-0.51,2.276-1.144,3.31-1.892c1.515-1.079,2.272-2.006,2.272-2.781c-0.188-0.824-0.583-1.587-1.146-2.219l1.709-1.817
	c0.283,0.501,0.611,0.978,0.981,1.418c0.384,0.431,0.933,0.675,1.509,0.673h2.073c1.044,0.012,2.082-0.147,3.072-0.473
	c0.484-0.17,1.272-0.454,2.364-0.854c-0.636-0.118-1.262-0.282-1.873-0.491c-0.546-0.185-1.104-0.323-1.673-0.418
	c-0.266-0.006-0.521,0.107-0.691,0.311c-0.085,0.109-0.218,0.271-0.399,0.491c-0.566-0.207-1.113-0.463-1.636-0.765
	c0.63-1.553,1.418-2.328,2.363-2.328c1.128,0.121,2.237,0.385,3.3,0.782c1.319,0.468,2.702,0.73,4.101,0.782
	c0.292,0.004,0.583-0.008,0.873-0.036l-0.31,2.272C51.305,40.518,50.323,40.805,49.456,41.326L49.456,41.326z M46.986,33.637
	l1.399-1.891l1.964,1.291l-1.437,1.908L46.986,33.637z M29.84,31.398l2.235-0.873V43.49l-1.618,0.582L29.84,31.398z M26.313,43.781
	c-0.973,0.081-1.915-0.362-2.473-1.164c-0.363,0.701-1.085,1.143-1.873,1.146c-0.893,0.072-1.747-0.373-2.2-1.145
	c-0.268,0.382-0.641,0.679-1.072,0.854c-0.417,0.189-0.869,0.288-1.327,0.29h-0.763c-1.208,0.145-2.388-0.433-3.018-1.473
	c-0.428-1.057-0.632-2.189-0.601-3.327l-0.221-7.563l2.183-0.873v8.709c0,1.32,0.526,1.981,1.582,1.981h1.054
	c0.356,0.011,0.707-0.108,0.981-0.336c0.271-0.233,0.42-0.579,0.4-0.937v-0.633l1.546-0.526v0.672
	c-0.021,0.446,0.079,0.89,0.291,1.283c0.166,0.305,0.488,0.489,0.836,0.48c0.704,0.138,1.389-0.321,1.525-1.024
	c0.022-0.117,0.03-0.237,0.021-0.356v-0.856l1.563-0.454v1.091c-0.017,0.441,0.134,0.872,0.418,1.209
	c0.278,0.32,0.686,0.498,1.108,0.482c0.453,0.074,0.882-0.23,0.956-0.685c0.013-0.067,0.015-0.139,0.009-0.207
	c-0.011-0.594-0.291-1.149-0.765-1.51l1.545-1.728c0.7,0.847,1.062,1.922,1.019,3.019c0.025,0.875-0.242,1.733-0.765,2.437
	C27.859,43.326,27.119,43.758,26.313,43.781z M5.948,46.419c-1.48,0.123-2.932-0.464-3.909-1.582
	c-0.721-0.94-1.087-2.106-1.034-3.291c0.019-0.573,0.11-1.142,0.272-1.69c0.135-0.559,0.342-1.098,0.617-1.601l1.637,0.582
	c-0.362,0.697-0.562,1.469-0.582,2.255c-0.029,0.764,0.269,1.504,0.817,2.036c0.644,0.556,1.479,0.837,2.327,0.782
	c0.931,0.047,1.853-0.216,2.618-0.746c0.726-0.58,1.132-1.473,1.092-2.4C9.788,39.76,9.445,38.789,8.823,38l1.836-1.51
	c0.911,1.143,1.377,2.576,1.31,4.035c0.085,1.597-0.518,3.151-1.655,4.273C9.128,45.895,7.56,46.477,5.948,46.419z M4.366,35.582
	l1.438-1.893l1.944,1.291L6.294,36.89L4.366,35.582z M167.837,46.182l0.781-1.108l1.689,1.108l-1.09,1.51l-1.455-0.944l-0.836,1.127
	l-1.655-1.127l1.146-1.51L167.837,46.182z M169.49,48.617l-1.127,1.474l-1.526-1.073l1.067-1.453L169.49,48.617z M169.091,19.745
	c-0.675,0.858-1.58,1.508-2.609,1.871l-1.069-1.031c0.893-0.343,1.716-0.843,2.432-1.476c0.539-0.374,0.951-0.902,1.185-1.516
	c-0.313,0.143-0.655,0.21-1,0.2c-0.766,0.117-1.479-0.407-1.597-1.172c-0.02-0.13-0.021-0.263-0.004-0.394
	c0.009-0.528,0.146-1.047,0.395-1.514c0.196-0.564,0.705-0.961,1.3-1.018c0.743-0.021,1.424,0.412,1.719,1.095
	c0.322,0.665,0.479,1.399,0.458,2.138c-0.053,1.053-0.479,2.051-1.203,2.816L169.091,19.745z M168.657,15.445
	c-0.137-0.146-0.323-0.233-0.521-0.242c-0.168,0.002-0.327,0.074-0.438,0.2c-0.131,0.127-0.202,0.302-0.2,0.482
	c0,0.306,0.255,0.458,0.764,0.458c0.251,0.013,0.501-0.04,0.727-0.153c-0.026-0.277-0.141-0.539-0.325-0.747L168.657,15.445z
	 M160.913,21.211l-1.199-0.941c1.08-0.494,2.083-1.142,2.978-1.923c0.523-0.359,0.893-0.906,1.031-1.525
	c-0.021-0.287-0.128-0.562-0.305-0.789c-0.134-0.178-0.338-0.45-0.611-0.815l1.146-1.374c0.317,0.376,0.587,0.791,0.801,1.234
	c0.207,0.495,0.307,1.029,0.293,1.566c-0.069,1.119-0.6,2.16-1.465,2.875c-0.774,0.726-1.678,1.299-2.664,1.691L160.913,21.211z
	 M161.563,11.895l0.979-1.323l1.361,0.916l-1,1.323L161.563,11.895z M157.776,9.668l1.566-0.611v9.075l-1.134,0.407L157.776,9.668z
	 M152.696,21.209l-1.2-0.941c1.081-0.494,2.084-1.142,2.979-1.923c0.523-0.361,0.893-0.906,1.031-1.525
	c-0.02-0.287-0.124-0.562-0.3-0.789c-0.133-0.178-0.337-0.45-0.61-0.815l1.146-1.374c0.316,0.376,0.587,0.791,0.8,1.234
	c0.207,0.495,0.307,1.029,0.292,1.564c-0.068,1.12-0.599,2.161-1.463,2.876C154.591,20.242,153.684,20.817,152.696,21.209z
	 M144.415,18.74c-2.979,0-4.467-0.874-4.467-2.622c0.04-0.685,0.234-1.351,0.572-1.947l1.133,0.356
	c-0.165,0.323-0.276,0.672-0.331,1.031c0.03,0.666,0.557,1.202,1.223,1.246c0.641,0.123,1.294,0.174,1.946,0.153h0.941
	c1.049-0.003,2.095-0.145,3.105-0.42c0.898-0.237,1.354-0.476,1.361-0.713c-0.166-0.46-0.427-0.88-0.764-1.234l0.979-1.438
	c0.631,0.627,0.989,1.478,1,2.366C151.13,17.658,148.896,18.731,144.415,18.74z M145.077,12.389l-0.601,0.84l-1.3-0.891l0.84-1.107
	l1.081,0.752l0.586-0.854l1.233,0.865l-0.826,1.12L145.077,12.389z M134.222,16.347c0.76-0.054,1.515-0.173,2.253-0.354
	l-0.179,1.553c-1.73,0.437-3.499,0.696-5.281,0.776h-1.058c-0.345-0.008-0.678-0.124-0.953-0.331
	c-0.227-0.152-0.407-0.364-0.522-0.611c-0.251,0.588-0.837,0.962-1.476,0.942h-8.319c-0.236,0.885-0.729,1.681-1.412,2.291
	c-0.659,0.639-1.441,1.137-2.3,1.464l-1.082-1.044c0.768-0.292,1.49-0.687,2.15-1.171c0.609-0.369,1.106-0.897,1.438-1.527
	c-0.604,0.038-1.211-0.049-1.78-0.255c-0.538-0.279-0.849-0.862-0.776-1.464c0.014-0.525,0.153-1.04,0.406-1.5
	c0.199-0.55,0.704-0.929,1.286-0.968c0.835,0.013,1.564,0.563,1.808,1.362c0.142,0.328,0.231,0.676,0.267,1.031h7.949
	c0.363,0.056,0.734-0.036,1.031-0.255c0.131-0.318,0.175-0.666,0.128-1.006l-0.18-5.613l1.54-0.611v6.06
	c-0.016,0.346,0.079,0.688,0.269,0.979c0.189,0.29,0.52,0.459,0.864,0.445h1.5c-0.051-0.103-0.132-0.269-0.241-0.5
	c-0.087-0.289-0.13-0.589-0.127-0.892c0.021-0.526,0.233-1.027,0.6-1.405c0.394-0.492,0.993-0.772,1.623-0.757
	c0.395,0.006,0.78,0.1,1.134,0.273c0.342,0.146,0.64,0.374,0.864,0.668l-0.458,0.942c-0.438-0.233-0.928-0.359-1.425-0.369
	c-0.287,0.001-0.57,0.065-0.828,0.19c-0.224,0.088-0.377,0.297-0.395,0.535c0.042,0.33,0.241,0.619,0.534,0.776
	C133.415,16.223,133.814,16.344,134.222,16.347z M117.204,15.9c-0.138-0.193-0.355-0.311-0.592-0.318
	c-0.158,0.003-0.309,0.076-0.407,0.2c-0.11,0.116-0.181,0.267-0.199,0.426c0,0.298,0.25,0.446,0.751,0.446
	c0.257-0.004,0.513-0.033,0.764-0.09C117.478,16.318,117.368,16.089,117.204,15.9z M112.228,17.911
	c-0.341,0-0.681-0.021-1.019-0.064c-0.294-0.05-0.592-0.083-0.891-0.1c-0.309-0.047-0.614,0.087-0.789,0.344
	c-0.098,0.212-0.142,0.443-0.127,0.675v5.346h-1.235l-0.229-5.754c-0.021-0.486,0.098-0.97,0.338-1.394
	c0.214-0.407,0.6-0.695,1.051-0.783c-0.004-0.525,0.118-1.046,0.355-1.515c0.192-0.494,0.654-0.832,1.185-0.865
	c0.666,0.023,1.301,0.285,1.788,0.738c0.483,0.303,0.814,0.799,0.909,1.362c-0.03,0.437-0.176,0.857-0.42,1.222
	c-0.148,0.404-0.496,0.702-0.917,0.79L112.228,17.911L112.228,17.911z M111.728,15.544c-0.217-0.179-0.482-0.286-0.764-0.305
	c-0.161,0.003-0.313,0.069-0.427,0.184c-0.133,0.122-0.205,0.297-0.199,0.478c-0.003,0.055,0.001,0.11,0.012,0.164
	c1.011,0.111,1.478,0.166,1.399,0.166c0.132,0.037,0.271-0.009,0.356-0.115c-0.014-0.243-0.156-0.461-0.375-0.569L111.728,15.544z
	 M104.607,17.924c-0.489-0.363-0.751-0.958-0.687-1.563c0.001-0.45,0.101-0.895,0.293-1.301c0.203-0.436,0.498-0.821,0.864-1.133
	h0.572c-0.214,0.241-0.386,0.518-0.509,0.814c-0.086,0.293-0.138,0.595-0.152,0.898c-0.016,0.254,0.037,0.507,0.152,0.732
	c0.122,0.221,0.304,0.403,0.521,0.528l0.623,0.395l-0.813,1.2L104.607,17.924z M99.159,11.293l-0.601,0.854l-1.272-0.879
	l0.827-1.119l1.057,0.737l0.61-0.853l1.233,0.878l-0.811,1.108L99.159,11.293z M95.94,16.537h2.228c0.534,0,0.801-0.123,0.801-0.369
	c-0.045-0.264-0.169-0.509-0.355-0.7l-0.507-0.661l1-1.412c0.663,0.643,1.026,1.533,1,2.457c0.029,0.6-0.165,1.189-0.547,1.653
	c-0.552,0.575-1.331,0.874-2.126,0.815H95.69c-1.162,0-1.761-0.733-1.795-2.2c-0.466,0.295-0.916,0.614-1.349,0.955
	c-0.423,0.325-0.874,0.61-1.35,0.853c-0.558,0.266-1.166,0.399-1.782,0.396h-1.819c-0.769,0.036-1.528-0.179-2.164-0.611
	c-0.25,0.18-0.529,0.313-0.827,0.396c-0.324,0.125-0.669,0.198-1.018,0.216h-0.93c-0.598,0.062-1.167-0.259-1.426-0.8
	c-0.421,0.557-1.099,0.858-1.794,0.8H78.47c-0.769,0.036-1.528-0.179-2.164-0.611c-0.25,0.18-0.53,0.313-0.827,0.396
	c-0.324,0.125-0.669,0.198-1.018,0.216h-7.949c-0.846,0.101-1.673-0.302-2.113-1.031c-0.299-0.739-0.44-1.532-0.42-2.329
	l-0.152-5.295l1.526-0.611v6.101c0,0.925,0.369,1.387,1.106,1.387h8.561c-0.201-0.28-0.302-0.622-0.279-0.967
	c0.016-0.624,0.28-1.216,0.737-1.642c0.333-0.424,0.825-0.69,1.362-0.738c0.41,0.011,0.783,0.239,0.979,0.6
	c0.27,0.424,0.405,0.918,0.396,1.419c0.025,0.513-0.198,1.006-0.601,1.324h1.77c0.763,0,1.146-0.263,1.146-0.789v-0.613l1.26-0.407
	v0.383c0,0.95,0.31,1.426,0.93,1.425h1.425c-0.203-0.28-0.302-0.622-0.279-0.967c0.016-0.624,0.28-1.217,0.737-1.643
	c0.333-0.423,0.825-0.69,1.362-0.737c0.41,0.011,0.783,0.239,0.979,0.6c0.269,0.424,0.405,0.918,0.395,1.419
	c0.025,0.513-0.198,1.006-0.601,1.324h2.443c0.709,0.009,1.41-0.148,2.049-0.458c0.095-0.043,0.606-0.318,1.54-0.827
	c-0.194-0.017-0.586-0.076-1.171-0.178c-0.285-0.048-0.593-0.097-0.924-0.149c-0.325,0.078-0.594,0.305-0.726,0.611
	c-0.393-0.146-0.771-0.324-1.134-0.533c0.477-1.2,1.022-1.8,1.643-1.8c0.852,0.046,1.696,0.178,2.521,0.395
	c0.843,0.219,1.703,0.355,2.571,0.407c0.284,0.008,0.569-0.005,0.854-0.038l-0.2,1.706c-0.47-0.009-0.938,0.055-1.388,0.191
	c0.019,0.17,0.089,0.329,0.2,0.458c0.276,0.174,0.604,0.251,0.929,0.219L95.94,16.537z M77.005,14.986
	c-0.13-0.107-0.29-0.17-0.458-0.178c-0.19,0.004-0.37,0.084-0.5,0.223c-0.152,0.113-0.247,0.287-0.262,0.477
	c0.015,0.146,0.094,0.273,0.217,0.35c0.112,0.103,0.255,0.163,0.406,0.173c0.192-0.013,0.377-0.089,0.521-0.216
	c0.136-0.107,0.234-0.254,0.28-0.42C77.211,15.232,77.134,15.082,77.005,14.986z M86.13,14.986c-0.13-0.107-0.29-0.17-0.458-0.178
	c-0.19,0.004-0.37,0.084-0.5,0.223c-0.152,0.113-0.247,0.287-0.262,0.477c0.015,0.146,0.094,0.273,0.217,0.35
	c0.112,0.103,0.255,0.163,0.406,0.173c0.192-0.013,0.377-0.089,0.521-0.216c0.136-0.106,0.234-0.254,0.28-0.42
	C86.335,15.234,86.26,15.083,86.13,14.986L86.13,14.986L86.13,14.986z M85.646,11.346l-0.6,0.827l-1.301-0.878l0.827-1.107
	l1.082,0.738l0.586-0.853l1.247,0.864l-0.827,1.121L85.646,11.346z M76.521,11.346l-0.6,0.827l-1.301-0.878l0.827-1.107l1.082,0.738
	l0.585-0.853l1.247,0.864l-0.827,1.121L76.521,11.346z M56.204,18.74c-2.979,0-4.467-0.874-4.467-2.622
	c0.04-0.685,0.234-1.351,0.572-1.947l1.134,0.356c-0.165,0.323-0.277,0.672-0.331,1.031c0.03,0.666,0.557,1.202,1.222,1.246
	c0.642,0.123,1.295,0.174,1.947,0.153h0.941c1.049-0.003,2.093-0.145,3.104-0.42c0.898-0.237,1.354-0.476,1.361-0.713
	c-0.166-0.46-0.426-0.881-0.764-1.234l0.979-1.438c0.632,0.627,0.992,1.477,1.005,2.366C62.923,17.658,60.688,18.731,56.204,18.74z
	 M56.866,12.389l-0.601,0.84l-1.3-0.891l0.84-1.107l1.082,0.752l0.586-0.854l1.233,0.865l-0.826,1.12L56.866,12.389z M44.462,21.616
	l-1.069-1.031c0.893-0.343,1.715-0.843,2.432-1.476c0.538-0.374,0.948-0.902,1.182-1.515c-0.316,0.143-0.659,0.21-1.006,0.2
	c-0.764,0.117-1.479-0.408-1.595-1.172c-0.021-0.131-0.021-0.263-0.006-0.393c0.011-0.529,0.146-1.049,0.396-1.515
	c0.196-0.563,0.704-0.962,1.3-1.018c0.74-0.02,1.418,0.416,1.71,1.097c0.323,0.665,0.48,1.398,0.458,2.139
	c-0.052,1.051-0.478,2.048-1.2,2.812C46.391,20.604,45.49,21.252,44.462,21.616z M46.638,15.443
	c-0.136-0.146-0.323-0.233-0.521-0.242c-0.168,0.002-0.327,0.074-0.438,0.199c-0.13,0.128-0.202,0.303-0.2,0.484
	c0,0.306,0.255,0.458,0.765,0.458c0.251,0.013,0.501-0.04,0.727-0.153C46.94,15.913,46.824,15.651,46.638,15.443L46.638,15.443z
	 M37.196,18.32h-1.2l0,0c-0.584,0.05-1.139-0.271-1.388-0.801c-0.421,0.557-1.099,0.859-1.794,0.801h-7.831
	c-0.846,0.101-1.672-0.303-2.112-1.031c-0.299-0.739-0.441-1.532-0.42-2.329l-0.152-5.295l1.526-0.611v6.102
	c0,0.924,0.369,1.387,1.106,1.387h7.835c0.764,0,1.146-0.263,1.146-0.789v-0.614l1.261-0.407v0.383c0,0.95,0.31,1.426,0.929,1.425
	h1.984c0.867,0,1.301-0.288,1.301-0.865c-0.33,0.253-0.746,0.366-1.158,0.318c-0.684,0.114-1.33-0.349-1.443-1.032
	c-0.021-0.118-0.022-0.239-0.009-0.359c0.015-0.516,0.158-1.02,0.421-1.464c0.214-0.544,0.718-0.919,1.3-0.967
	c0.736,0.082,1.349,0.607,1.54,1.324c0.306,0.667,0.471,1.391,0.483,2.125C40.526,17.42,39.418,18.32,37.196,18.32z M38.761,13.878
	c-0.104-0.152-0.265-0.258-0.446-0.293c-0.144,0.021-0.271,0.104-0.344,0.229c-0.105,0.079-0.176,0.199-0.19,0.33
	c-0.029,0.275,0.17,0.521,0.443,0.551c0.043,0.004,0.086,0.003,0.129-0.004c0.271,0.053,0.541-0.083,0.662-0.33
	C38.961,14.186,38.874,14.021,38.761,13.878z M36.814,10.467l0.991-1.336l1.361,0.916l-0.991,1.324L36.814,10.467z M33.39,12.72
	l1.005-1.336l1.35,0.916l-0.993,1.312L33.39,12.72z M17.57,21.62l-1.063-1.034c0.892-0.344,1.715-0.844,2.431-1.476
	c0.539-0.374,0.951-0.902,1.185-1.517c-0.315,0.143-0.659,0.21-1.005,0.2c-0.765,0.117-1.479-0.408-1.597-1.172
	c-0.02-0.131-0.021-0.263-0.004-0.393c0.01-0.529,0.146-1.049,0.396-1.515c0.196-0.563,0.705-0.962,1.3-1.018
	c0.743-0.022,1.425,0.412,1.719,1.095c0.323,0.665,0.48,1.398,0.458,2.138c-0.052,1.051-0.478,2.049-1.2,2.813
	c-0.677,0.86-1.584,1.51-2.616,1.872v0.006H17.57z M19.744,15.447c-0.136-0.146-0.322-0.233-0.521-0.242
	c-0.168,0.002-0.327,0.074-0.438,0.2c-0.129,0.127-0.201,0.302-0.2,0.482c0,0.307,0.255,0.458,0.765,0.458
	c0.251,0.013,0.5-0.04,0.726-0.151c-0.026-0.279-0.142-0.542-0.328-0.75v0.003H19.744z M12.005,21.209l-1.2-0.941
	c1.08-0.494,2.083-1.142,2.979-1.923c0.522-0.361,0.892-0.906,1.03-1.525c-0.021-0.288-0.128-0.562-0.306-0.789
	c-0.134-0.178-0.337-0.45-0.611-0.815l1.146-1.374c0.318,0.376,0.587,0.791,0.801,1.234c0.207,0.495,0.307,1.029,0.293,1.564
	c-0.068,1.12-0.6,2.161-1.464,2.876C13.897,20.242,12.991,20.816,12.005,21.209z M8.775,14.795c-0.445,0.004-0.879,0.151-1.234,0.42
	c-0.271,0.144-0.457,0.409-0.5,0.713c-0.001,0.127,0.091,0.235,0.217,0.256c0.229,0.063,0.463,0.106,0.699,0.127
	c0.145,0,0.355,0.008,0.637,0.024c1.052,0.077,1.578,0.497,1.578,1.26c-0.009,1.104-0.586,2.125-1.527,2.7
	c-0.971,0.671-2.129,1.019-3.31,0.993c-2.579,0-3.868-1.082-3.868-3.245c0.017-0.873,0.267-1.726,0.725-2.469l1.223,0.42
	c-0.319,0.483-0.493,1.049-0.5,1.629c0,1.281,0.874,1.922,2.622,1.922c0.527-0.018,1.053-0.101,1.562-0.245
	c0.665-0.136,1.283-0.443,1.795-0.891c0.076-0.068,0.122-0.165,0.127-0.267c-0.002-0.138-0.114-0.247-0.252-0.244
	c-0.01,0-0.019,0-0.027,0.002c-0.729-0.067-1.393-0.127-1.984-0.179c-0.617-0.039-1.085-0.569-1.046-1.187
	C5.71,16.53,5.71,16.525,5.71,16.52c0.019-0.898,0.402-1.751,1.062-2.36c0.604-0.67,1.459-1.06,2.361-1.075
	c0.229-0.007,0.46,0.01,0.688,0.051c0.217,0.088,0.426,0.193,0.624,0.318l-0.396,1.518C9.638,14.834,9.206,14.773,8.775,14.795z
	 M81.015,20.153l0.601-0.854l1.234,0.878l-0.814,1.107l-1.044-0.713l-0.601,0.84l-1.286-0.877l0.827-1.12L81.015,20.153z"/>
</svg>
