<?xml version="1.0" encoding="utf-8"?>
<!-- Generator: Adobe Illustrator 21.0.0, SVG Export Plug-In . SVG Version: 6.00 Build 0)  -->
<svg version="1.1" id="Layer_1" xmlns="http://www.w3.org/2000/svg" xmlns:xlink="http://www.w3.org/1999/xlink" x="0px" y="0px"
	 viewBox="0 0 300 60" style="enable-background:new 0 0 300 60;" xml:space="preserve">
<style type="text/css">
	.st0{fill:#8AA5B2;}
</style>
<g>
	<g>
		<path class="st0" d="M61,26.9l-0.4,0.2c0,0-0.5-2-2.3-3.7l-0.6,0.5c0,0-1.7-1.9-3.5-2.1v4.5c0,0,3.7,1,3.7,6s-3.8,10.2-3.8,15.1
			L54,59l4.4-0.1l-0.1-11.2c0-5.4,3.6-10.8,3.6-15.7C61.9,28.6,61,26.9,61,26.9z M72.8,9.2l-1.3,1.4l-5-2.7L62,17.6l4.9,2.1v2
			c15,4.3,15.7,19.8,15.7,19.8V59h6.5l0.1-17.6C89.1,21.1,72.8,9.2,72.8,9.2z M51.9,26.2v-4.5c-1.8,0.3-3.5,2.1-3.5,2.1l-0.6-0.5
			C46,25,45.5,27,45.5,27L45,26.9c0,0-1,1.8-1,5.1c0,4.9,3.6,10.3,3.6,15.7l-0.1,11.2L52,59V47.3c0-4.9-3.8-10.1-3.8-15.1
			C48.3,27.2,51.9,26.2,51.9,26.2z M34.5,10.6l-1.3-1.4c0,0-16.3,11.9-16.3,32.1L17,59h6.4V41.6c0,0,0.7-15.5,15.7-19.8v-2l4.9-2.1
			L39.5,8L34.5,10.6z M54.3,35.5c0-0.1,0-0.2-0.1-0.3c0.1-0.1,0.2-0.3,0.3-0.5c0.1,0,0.2,0,0.3,0c0.7,0,1.3-0.2,1.6-0.7
			s0.2-1.2-0.4-2c0.5-0.7,0.7-1.5,0.4-2c-0.1-0.1-0.2-0.2-0.3-0.3v-0.1c0-0.3-0.3-0.6-0.6-0.6c-0.2,0-0.4,0.1-0.5,0.3
			c-0.2,0-0.3,0-0.5,0C54.1,28.5,53.6,28,53,28s-1.1,0.5-1.5,1.3c-0.9-0.1-1.6,0.2-1.9,0.7c-0.1,0.1-0.1,0.3-0.1,0.4
			c-0.2,0.1-0.4,0.3-0.4,0.5c0,0.3,0.3,0.6,0.6,0.6l0,0c0.1,0.1,0.2,0.3,0.3,0.5c-0.5,0.7-0.7,1.5-0.4,2c0.3,0.4,0.8,0.7,1.6,0.7
			c0.1,0,0.2,0,0.3,0c0.4,0.8,0.9,1.3,1.5,1.3c0.2,0,0.3,0,0.4-0.1c0.1,0.1,0.2,0.1,0.4,0.1C54.1,36.1,54.3,35.8,54.3,35.5z
			 M54.3,34.4c-0.3,0-0.6-0.1-0.9-0.2c0.2-0.1,0.4-0.2,0.6-0.3c0.2-0.1,0.4-0.2,0.6-0.4C54.5,33.9,54.4,34.1,54.3,34.4z M56.1,33.9
			c-0.2,0.4-0.7,0.6-1.5,0.5c0.1-0.4,0.2-0.8,0.3-1.2c0.3-0.3,0.6-0.6,0.9-0.9C56.2,33,56.3,33.5,56.1,33.9z M55,31.5
			c0.2,0.2,0.4,0.4,0.6,0.7c-0.2,0.2-0.4,0.4-0.6,0.7c0-0.2,0-0.4,0-0.7C55,31.9,55,31.7,55,31.5z M55.5,29.5c0.1,0,0.2,0.1,0.2,0.2
			s-0.1,0.2-0.2,0.2c-0.1,0-0.2-0.1-0.2-0.2S55.4,29.5,55.5,29.5z M55,29.8c0,0.3,0.3,0.5,0.6,0.5c0.2,0,0.3-0.1,0.4-0.2
			c0.1,0.1,0.1,0.1,0.2,0.2c0.2,0.4,0.1,0.9-0.3,1.5c-0.2-0.3-0.5-0.6-0.9-0.9c-0.1-0.4-0.2-0.8-0.3-1.2
			C54.8,29.8,54.9,29.8,55,29.8z M54.6,30.7c-0.2-0.1-0.4-0.2-0.6-0.4c-0.2-0.1-0.4-0.2-0.6-0.3c0.3-0.1,0.6-0.2,0.9-0.2
			C54.4,30.1,54.5,30.4,54.6,30.7z M53,28.5c0.4,0,0.9,0.4,1.2,1c-0.4,0.1-0.8,0.2-1.2,0.3c-0.4-0.2-0.8-0.3-1.2-0.3
			C52.1,28.9,52.5,28.5,53,28.5z M51.7,29.8c0.3,0,0.6,0.1,0.9,0.2c-0.2,0.1-0.4,0.2-0.6,0.3c-0.2,0.1-0.4,0.2-0.6,0.4
			C51.5,30.4,51.5,30.1,51.7,29.8z M49.6,31.3c-0.1,0-0.2-0.1-0.2-0.2s0.1-0.2,0.2-0.2c0.1,0,0.2,0.1,0.2,0.2
			C49.8,31.2,49.7,31.3,49.6,31.3z M49.7,30.6c0-0.1,0-0.2,0.1-0.2c0.2-0.4,0.7-0.6,1.5-0.5c-0.1,0.4-0.2,0.8-0.3,1.2
			c-0.3,0.3-0.6,0.6-0.9,0.9c-0.1-0.1-0.1-0.2-0.2-0.3c0.1-0.1,0.2-0.3,0.2-0.4C50.2,30.8,50,30.6,49.7,30.6z M50.9,32.8
			c-0.2-0.2-0.4-0.4-0.6-0.7c0.2-0.2,0.4-0.4,0.6-0.7c0,0.2,0,0.4,0,0.7C50.9,32.3,50.9,32.6,50.9,32.8z M49.8,33.9
			c-0.2-0.4-0.1-0.9,0.3-1.5c0.2,0.3,0.5,0.6,0.9,0.9c0.1,0.4,0.2,0.8,0.3,1.2C50.6,34.5,50.1,34.3,49.8,33.9z M51.3,32.1
			c0-0.3,0-0.6,0.1-1c0.3-0.2,0.5-0.4,0.8-0.5c0.3-0.2,0.6-0.3,0.9-0.4c0.3,0.1,0.6,0.3,0.9,0.4c0.3,0.2,0.6,0.3,0.8,0.5
			c0,0.3,0.1,0.6,0.1,1c0,0.4,0,0.6-0.1,1c-0.3,0.2-0.5,0.4-0.8,0.5c-0.3,0.2-0.6,0.3-0.9,0.4c-0.3-0.1-0.6-0.3-0.9-0.4
			c-0.3-0.2-0.6-0.3-0.8-0.5C51.3,32.8,51.3,32.4,51.3,32.1z M51.4,33.5c0.2,0.1,0.4,0.2,0.6,0.4s0.4,0.2,0.6,0.3
			c-0.3,0.1-0.6,0.2-0.9,0.2C51.5,34.1,51.5,33.9,51.4,33.5z M53.8,35.8c-0.1,0-0.2-0.1-0.2-0.2s0.1-0.2,0.2-0.2s0.2,0.1,0.2,0.2
			S53.9,35.8,53.8,35.8z M54,35c-0.1,0-0.1,0-0.2,0c-0.3,0-0.6,0.3-0.6,0.6c0,0.1,0,0.1,0,0.1c-0.1,0-0.2,0-0.3,0
			c-0.4,0-0.9-0.4-1.2-1c0.4-0.1,0.8-0.2,1.2-0.3c0.4,0.2,0.8,0.3,1.2,0.3C54.1,34.8,54.1,34.9,54,35z M52.9,32.9
			c0.4,0,0.8-0.3,0.8-0.8s-0.4-0.8-0.8-0.8s-0.8,0.4-0.8,0.8C52.1,32.5,52.5,32.9,52.9,32.9z M52.9,31.7c0.3,0,0.5,0.2,0.5,0.5
			s-0.2,0.5-0.5,0.5s-0.5-0.2-0.5-0.5S52.7,31.7,52.9,31.7z M53.2,8.1c4.3,0,11.4,1.1,11.4,1.1l0.3-0.6c0,0-7.3-1.2-11.6-1.2
			S41.2,8.7,41.2,8.7l0.3,0.6C41.5,9.3,48.8,8.1,53.2,8.1z M64.3,10c0,0-7-1.2-11.1-1.2S41.8,10,41.8,10l0.2,0.6c0,0,7-1.1,11.1-1.1
			s10.8,1.1,10.8,1.1L64.3,10z M42.3,11.4l0.2,0.6c0,0,6.7-1.1,10.6-1.1S63.5,12,63.5,12l0.3-0.6c0,0-6.7-1.2-10.6-1.2
			S42.3,11.4,42.3,11.4z"/>
	</g>
</g>
<image style="overflow:visible;" width="1556" height="1665" xlink:href="../../../../../../../../../../Desktop/نشانه-سال-97 copy.png"  transform="matrix(2.908310e-02 0 0 2.908310e-02 120.1202 7.4)">
</image>
</svg>
